<svg width="115" height="23" viewBox="0 0 115 23" fill="none" xmlns="http://www.w3.org/2000/svg">
<path d="M1.184 22.56C1.024 22.56 0.888 22.504 0.776 22.392C0.664 22.296 0.608 22.16 0.608 21.984V6.096C0.608 5.92 0.664 5.784 0.776 5.688C0.888 5.576 1.024 5.52 1.184 5.52H3.08C3.256 5.52 3.392 5.576 3.488 5.688C3.6 5.784 3.656 5.92 3.656 6.096V7.056C4.552 5.872 5.832 5.28 7.496 5.28C9.112 5.28 10.352 5.792 11.216 6.816C12.08 7.824 12.544 9.192 12.608 10.92C12.624 11.112 12.632 11.392 12.632 11.76C12.632 12.144 12.624 12.432 12.608 12.624C12.544 14.304 12.08 15.664 11.216 16.704C10.352 17.728 9.112 18.24 7.496 18.24C5.88 18.24 4.648 17.672 3.8 16.536V21.984C3.8 22.16 3.744 22.296 3.632 22.392C3.536 22.504 3.4 22.56 3.224 22.56H1.184ZM6.608 15.672C8.336 15.672 9.256 14.608 9.368 12.48C9.384 12.32 9.392 12.08 9.392 11.76C9.392 11.44 9.384 11.2 9.368 11.04C9.256 8.912 8.336 7.848 6.608 7.848C5.68 7.848 4.992 8.144 4.544 8.736C4.096 9.328 3.848 10.056 3.8 10.92L3.776 11.832L3.8 12.768C3.832 13.568 4.08 14.256 4.544 14.832C5.024 15.392 5.712 15.672 6.608 15.672ZM20.8462 18.24C18.9742 18.24 17.5262 17.76 16.5022 16.8C15.4782 15.824 14.9262 14.496 14.8462 12.816L14.8222 11.76L14.8462 10.704C14.9262 9.04 15.4862 7.72 16.5262 6.744C17.5662 5.768 19.0062 5.28 20.8462 5.28C22.6862 5.28 24.1262 5.768 25.1662 6.744C26.2062 7.72 26.7662 9.04 26.8462 10.704C26.8622 10.896 26.8702 11.248 26.8702 11.76C26.8702 12.272 26.8622 12.624 26.8462 12.816C26.7662 14.496 26.2142 15.824 25.1902 16.8C24.1662 17.76 22.7182 18.24 20.8462 18.24ZM20.8462 15.864C21.6942 15.864 22.3502 15.6 22.8142 15.072C23.2782 14.528 23.5342 13.736 23.5822 12.696C23.5982 12.536 23.6062 12.224 23.6062 11.76C23.6062 11.296 23.5982 10.984 23.5822 10.824C23.5342 9.784 23.2782 9 22.8142 8.472C22.3502 7.928 21.6942 7.656 20.8462 7.656C19.9982 7.656 19.3422 7.928 18.8782 8.472C18.4142 9 18.1582 9.784 18.1102 10.824L18.0862 11.76L18.1102 12.696C18.1582 13.736 18.4142 14.528 18.8782 15.072C19.3422 15.6 19.9982 15.864 20.8462 15.864ZM30.1293 18C29.9693 18 29.8333 17.944 29.7213 17.832C29.6093 17.72 29.5533 17.584 29.5533 17.424V1.536C29.5533 1.36 29.6093 1.224 29.7213 1.128C29.8333 1.016 29.9693 0.959999 30.1293 0.959999H32.0733C32.2493 0.959999 32.3853 1.016 32.4813 1.128C32.5933 1.224 32.6493 1.36 32.6493 1.536V9.744L36.6813 5.928C36.7293 5.896 36.8093 5.832 36.9213 5.736C37.0173 5.656 37.1133 5.6 37.2093 5.568C37.3053 5.536 37.4253 5.52 37.5693 5.52H39.8013C39.9613 5.52 40.0893 5.568 40.1853 5.664C40.2813 5.76 40.3293 5.888 40.3293 6.048C40.3293 6.192 40.2493 6.336 40.0893 6.48L35.1453 11.112L40.6893 17.064C40.8493 17.224 40.9293 17.36 40.9293 17.472C40.9293 17.632 40.8733 17.76 40.7613 17.856C40.6653 17.952 40.5453 18 40.4013 18H38.1213C37.8973 18 37.7293 17.976 37.6173 17.928C37.5213 17.864 37.3933 17.752 37.2333 17.592L32.6493 12.768V17.424C32.6493 17.584 32.5933 17.72 32.4813 17.832C32.3853 17.944 32.2493 18 32.0733 18H30.1293ZM47.5147 18.24C45.7387 18.24 44.3227 17.728 43.2667 16.704C42.2267 15.664 41.6747 14.208 41.6107 12.336L41.5867 11.736L41.6107 11.136C41.6907 9.312 42.2507 7.88 43.2907 6.84C44.3467 5.8 45.7547 5.28 47.5147 5.28C49.4027 5.28 50.8587 5.856 51.8827 7.008C52.9227 8.16 53.4427 9.696 53.4427 11.616V12.12C53.4427 12.28 53.3867 12.416 53.2747 12.528C53.1627 12.64 53.0187 12.696 52.8427 12.696H44.8747V12.888C44.9067 13.768 45.1467 14.512 45.5947 15.12C46.0587 15.712 46.6907 16.008 47.4907 16.008C48.4347 16.008 49.1947 15.64 49.7707 14.904C49.9147 14.728 50.0267 14.616 50.1067 14.568C50.2027 14.52 50.3387 14.496 50.5147 14.496H52.5787C52.7227 14.496 52.8427 14.544 52.9387 14.64C53.0507 14.72 53.1067 14.824 53.1067 14.952C53.1067 15.336 52.8747 15.792 52.4107 16.32C51.9627 16.832 51.3147 17.28 50.4667 17.664C49.6187 18.048 48.6347 18.24 47.5147 18.24ZM50.1787 10.68V10.608C50.1787 9.664 49.9387 8.904 49.4587 8.328C48.9947 7.752 48.3467 7.464 47.5147 7.464C46.6827 7.464 46.0347 7.752 45.5707 8.328C45.1067 8.904 44.8747 9.664 44.8747 10.608V10.68H50.1787ZM60.7183 18.24C59.5183 18.24 58.5103 18.064 57.6943 17.712C56.8783 17.344 56.2703 16.92 55.8703 16.44C55.4863 15.944 55.2943 15.52 55.2943 15.168C55.2943 15.008 55.3503 14.88 55.4623 14.784C55.5743 14.688 55.7023 14.64 55.8463 14.64H57.7423C57.8863 14.64 58.0063 14.696 58.1023 14.808C58.1663 14.856 58.3343 15 58.6063 15.24C58.8783 15.496 59.1983 15.696 59.5663 15.84C59.9343 15.984 60.3423 16.056 60.7903 16.056C61.4303 16.056 61.9583 15.928 62.3743 15.672C62.7903 15.416 62.9983 15.064 62.9983 14.616C62.9983 14.28 62.9023 14.008 62.7103 13.8C62.5343 13.592 62.2063 13.408 61.7263 13.248C61.2463 13.072 60.5343 12.888 59.5903 12.696C58.2303 12.408 57.2223 11.968 56.5663 11.376C55.9263 10.784 55.6063 10 55.6063 9.024C55.6063 8.384 55.7983 7.784 56.1823 7.224C56.5663 6.648 57.1343 6.184 57.8863 5.832C58.6543 5.464 59.5663 5.28 60.6223 5.28C61.6943 5.28 62.6223 5.456 63.4063 5.808C64.1903 6.144 64.7823 6.552 65.1823 7.032C65.5983 7.496 65.8063 7.912 65.8063 8.28C65.8063 8.424 65.7503 8.552 65.6383 8.664C65.5423 8.76 65.4223 8.808 65.2783 8.808H63.5023C63.3743 8.808 63.2383 8.752 63.0943 8.64C62.9823 8.56 62.8063 8.408 62.5663 8.184C62.3263 7.96 62.0463 7.784 61.7263 7.656C61.4063 7.528 61.0303 7.464 60.5983 7.464C60.0063 7.464 59.5423 7.592 59.2063 7.848C58.8863 8.104 58.7263 8.44 58.7263 8.856C58.7263 9.16 58.8063 9.408 58.9663 9.6C59.1263 9.792 59.4383 9.976 59.9023 10.152C60.3663 10.328 61.0623 10.504 61.9903 10.68C63.5263 10.984 64.6223 11.456 65.2783 12.096C65.9503 12.736 66.2863 13.52 66.2863 14.448C66.2863 15.568 65.7983 16.48 64.8223 17.184C63.8463 17.888 62.4783 18.24 60.7183 18.24ZM74.3568 18C72.9008 18 71.8048 17.624 71.0688 16.872C70.3488 16.104 69.9888 14.984 69.9888 13.512V8.064H68.0928C67.9328 8.064 67.7968 8.008 67.6848 7.896C67.5728 7.768 67.5168 7.624 67.5168 7.464V6.096C67.5168 5.936 67.5728 5.8 67.6848 5.688C67.7968 5.576 67.9328 5.52 68.0928 5.52H69.9888V1.536C69.9888 1.36 70.0448 1.224 70.1568 1.128C70.2688 1.016 70.4048 0.959999 70.5648 0.959999H72.5088C72.6848 0.959999 72.8208 1.016 72.9168 1.128C73.0288 1.224 73.0848 1.36 73.0848 1.536V5.52H76.0848C76.2608 5.52 76.3968 5.576 76.4928 5.688C76.6048 5.784 76.6608 5.92 76.6608 6.096V7.464C76.6608 7.64 76.6048 7.784 76.4928 7.896C76.3808 8.008 76.2448 8.064 76.0848 8.064H73.0848V13.272C73.0848 13.96 73.2048 14.48 73.4448 14.832C73.6848 15.184 74.0848 15.36 74.6448 15.36H76.3008C76.4608 15.36 76.5968 15.416 76.7088 15.528C76.8208 15.64 76.8768 15.776 76.8768 15.936V17.424C76.8768 17.584 76.8208 17.72 76.7088 17.832C76.6128 17.944 76.4768 18 76.3008 18H74.3568ZM84.5259 18.24C82.6539 18.24 81.2059 17.76 80.1819 16.8C79.1579 15.824 78.6059 14.496 78.5259 12.816L78.5019 11.76L78.5259 10.704C78.6059 9.04 79.1659 7.72 80.2059 6.744C81.2459 5.768 82.6859 5.28 84.5259 5.28C86.3659 5.28 87.8059 5.768 88.8459 6.744C89.8859 7.72 90.4459 9.04 90.5259 10.704C90.5419 10.896 90.5499 11.248 90.5499 11.76C90.5499 12.272 90.5419 12.624 90.5259 12.816C90.4459 14.496 89.8939 15.824 88.8699 16.8C87.8459 17.76 86.3979 18.24 84.5259 18.24ZM84.5259 15.864C85.3739 15.864 86.0299 15.6 86.4939 15.072C86.9579 14.528 87.2139 13.736 87.2619 12.696C87.2779 12.536 87.2859 12.224 87.2859 11.76C87.2859 11.296 87.2779 10.984 87.2619 10.824C87.2139 9.784 86.9579 9 86.4939 8.472C86.0299 7.928 85.3739 7.656 84.5259 7.656C83.6779 7.656 83.0219 7.928 82.5579 8.472C82.0939 9 81.8379 9.784 81.7899 10.824L81.7659 11.76L81.7899 12.696C81.8379 13.736 82.0939 14.528 82.5579 15.072C83.0219 15.6 83.6779 15.864 84.5259 15.864ZM93.785 18C93.625 18 93.489 17.944 93.377 17.832C93.265 17.72 93.209 17.584 93.209 17.424V6.12C93.209 5.96 93.265 5.824 93.377 5.712C93.489 5.584 93.625 5.52 93.785 5.52H95.729C95.905 5.52 96.049 5.576 96.161 5.688C96.273 5.8 96.329 5.944 96.329 6.12V7.104C96.713 6.592 97.193 6.2 97.769 5.928C98.361 5.656 99.033 5.52 99.785 5.52H100.769C100.945 5.52 101.081 5.576 101.177 5.688C101.289 5.784 101.345 5.92 101.345 6.096V7.824C101.345 7.984 101.289 8.12 101.177 8.232C101.081 8.344 100.945 8.4 100.769 8.4H98.897C98.145 8.4 97.553 8.616 97.121 9.048C96.689 9.48 96.473 10.072 96.473 10.824V17.424C96.473 17.584 96.417 17.72 96.305 17.832C96.193 17.944 96.049 18 95.873 18H93.785ZM108.429 18.24C106.653 18.24 105.237 17.728 104.181 16.704C103.141 15.664 102.589 14.208 102.525 12.336L102.501 11.736L102.525 11.136C102.605 9.312 103.165 7.88 104.205 6.84C105.261 5.8 106.669 5.28 108.429 5.28C110.317 5.28 111.773 5.856 112.797 7.008C113.837 8.16 114.357 9.696 114.357 11.616V12.12C114.357 12.28 114.301 12.416 114.189 12.528C114.077 12.64 113.933 12.696 113.757 12.696H105.789V12.888C105.821 13.768 106.061 14.512 106.509 15.12C106.973 15.712 107.605 16.008 108.405 16.008C109.349 16.008 110.109 15.64 110.685 14.904C110.829 14.728 110.941 14.616 111.021 14.568C111.117 14.52 111.253 14.496 111.429 14.496H113.493C113.637 14.496 113.757 14.544 113.853 14.64C113.965 14.72 114.021 14.824 114.021 14.952C114.021 15.336 113.789 15.792 113.325 16.32C112.877 16.832 112.229 17.28 111.381 17.664C110.533 18.048 109.549 18.24 108.429 18.24ZM111.093 10.68V10.608C111.093 9.664 110.853 8.904 110.373 8.328C109.909 7.752 109.261 7.464 108.429 7.464C107.597 7.464 106.949 7.752 106.485 8.328C106.021 8.904 105.789 9.664 105.789 10.608V10.68H111.093Z" fill="#FC4658"/>
</svg>
